<?xml version="1.0" encoding="utf-8"?><!-- Uploaded to: SVG Repo, www.svgrepo.com, Generator: SVG Repo Mixer Tools -->
<svg width="800px" height="800px" viewBox="0 0 48.001 48.001" xmlns="http://www.w3.org/2000/svg">
  <path id="area" d="M189,471a5.005,5.005,0,0,1-5-5V428a5.006,5.006,0,0,1,5-5h38a5.006,5.006,0,0,1,5,5v38a5.005,5.005,0,0,1-5,5Zm27-2h11a3,3,0,0,0,3-3V455H216Zm-15,0h14V455H201Zm-15-3a3,3,0,0,0,3,3h11V455H186Zm30-12h14V440H216Zm-4.293,0H215v-3.292Zm-4,0H211l-.353-.353,4-4L215,450v-3.293Zm-4,0H207l-.354-.353,8-8L215,446v-3.293ZM201,454h2l-.353-.353,12-12L215,442v-2h-.29a6.88,6.88,0,0,0,.219-1H215V425H201v14h.071a7.047,7.047,0,0,0,.219,1H201v3.292l1.271-1.27a7.068,7.068,0,0,0,.635.779l-1.552,1.553L201,444v3.293l3.331-3.331a6.88,6.88,0,0,0,.932.482l-3.91,3.91L201,448v3.292l6.073-6.073-.848-2.545a5,5,0,1,1,3.55,0L208,448l-.573-1.72-6.073,6.073L201,452Zm-15,0h14V440H186Zm19-16a3,3,0,1,0,3-3A3,3,0,0,0,205,438Zm11,1h14V428a3,3,0,0,0-3-3H216Zm-30-11v11h14V425H189A3,3,0,0,0,186,428Z" transform="translate(-184 -423)" fill="#494949"/>
</svg>